<svg width="48" height="48" viewBox="0 0 48 48" fill="none" xmlns="http://www.w3.org/2000/svg">
<path d="M30.7335 27.9C29.8002 26.9667 29.3335 25.8334 29.3335 24.5C29.3335 23.1667 29.8002 22.0334 30.7335 21.1C31.6668 20.1667 32.8002 19.7 34.1335 19.7C35.4668 19.7 36.6002 20.1667 37.5335 21.1C38.4668 22.0334 38.9335 23.1667 38.9335 24.5C38.9335 25.8334 38.4668 26.9667 37.5335 27.9C36.6002 28.8334 35.4668 29.3 34.1335 29.3C32.8002 29.3 31.6668 28.8334 30.7335 27.9ZM24.2665 40V37.3665C24.2665 36.5222 24.4582 35.7805 24.8415 35.1415C25.2248 34.5029 25.7665 34.0224 26.4665 33.7C27.6888 33.111 28.9362 32.6749 30.2085 32.3915C31.4805 32.1082 32.7888 31.9665 34.1335 31.9665C35.4778 31.9665 36.7862 32.1027 38.0585 32.375C39.3305 32.6474 40.5777 33.089 41.8 33.7C42.5 34 43.0417 34.475 43.425 35.125C43.8083 35.775 44 36.5222 44 37.3665V40H24.2665ZM14.5165 21.7835C13.0612 20.3279 12.3335 18.5 12.3335 16.3C12.3335 14.1 13.0612 12.2722 14.5165 10.8165C15.9722 9.36121 17.8 8.63354 20 8.63354C22.2 8.63354 24.0278 9.36121 25.4835 10.8165C26.9388 12.2722 27.6665 14.1 27.6665 16.3C27.6665 18.5 26.9388 20.3279 25.4835 21.7835C24.0278 23.2389 22.2 23.9665 20 23.9665C17.8 23.9665 15.9722 23.2389 14.5165 21.7835ZM4 40V35C4 33.8667 4.28333 32.825 4.85 31.875C5.41667 30.925 6.2445 30.2 7.3335 29.7C9.48883 28.7 11.6082 27.9445 13.6915 27.4335C15.7748 26.9222 17.8777 26.6665 20 26.6665C21.1 26.6665 22.1222 26.7332 23.0665 26.8665C24.0112 26.9999 25.0002 27.1777 26.0335 27.4C25.5555 27.8777 25.0832 28.3499 24.6165 28.8165C24.1498 29.2832 23.6777 29.7555 23.2 30.2335C22.711 30.1335 22.1998 30.0695 21.6665 30.0415C21.1332 30.0139 20.5777 30 20 30C18.089 30 16.2252 30.2055 14.4085 30.6165C12.5918 31.0279 10.7002 31.7224 8.7335 32.7C8.31117 32.911 7.97217 33.2332 7.7165 33.6665C7.46117 34.0999 7.3335 34.5444 7.3335 35V36.6665H20.9335V40H4ZM23.0915 19.3915C23.9195 18.5639 24.3335 17.5334 24.3335 16.3C24.3335 15.0667 23.9195 14.0362 23.0915 13.2085C22.2638 12.3805 21.2333 11.9665 20 11.9665C18.7667 11.9665 17.7362 12.3805 16.9085 13.2085C16.0805 14.0362 15.6665 15.0667 15.6665 16.3C15.6665 17.5334 16.0805 18.5639 16.9085 19.3915C17.7362 20.2195 18.7667 20.6335 20 20.6335C21.2333 20.6335 22.2638 20.2195 23.0915 19.3915Z" fill="#04080D"/>
</svg>
